<svg xmlns="http://www.w3.org/2000/svg" width="32.005" height="31.925" viewBox="0 0 32.005 31.925">
  <g id="icons_Q2" data-name="icons Q2" transform="translate(0)">
    <path id="Path_1262" data-name="Path 1262" d="M36,5.7V34.344a.24.24,0,0,1-.08.16,1.52,1.52,0,0,1-1.44,1.44h-8.4V23.623H30c.24,0,.24,0,.32-.24l.24-2c.08-.8.16-1.6.32-2.4s0-.24-.16-.24H26.083v-3.12c0-.24.08-.56.08-.8a1.44,1.44,0,0,1,1.28-1.28l1.04-.16h2.4c.16,0,.16,0,.16-.16V9.141c0-.08,0-.16-.16-.16H27.2a5.761,5.761,0,0,0-2.64.56,4.8,4.8,0,0,0-2.8,2.48,5.841,5.841,0,0,0-.64,2.88c-.08,1.2,0,2.48,0,3.761H17.042c-.16,0-.16.08-.16.16v4.561c0,.16,0,.16.16.16h4.081V35.865a.24.24,0,0,0-.08.16H5.52a1.52,1.52,0,0,1-1.44-1.44c-.08,0-.08-.08-.08-.16V5.7c0-.08,0-.16.08-.16A1.52,1.52,0,0,1,5.52,4.1H34.484a1.52,1.52,0,0,1,1.44,1.44Z" transform="translate(-4 -4.1)" fill="#fff"/>
  </g>
</svg>
