<svg id="google-icon" xmlns="http://www.w3.org/2000/svg" width="29.76" height="30.368" viewBox="0 0 29.76 30.368">
  <path id="Path_1263" data-name="Path 1263" d="M145.126,109.865a13.011,13.011,0,0,0-.321-3.1H130.55V112.4h8.368a7.42,7.42,0,0,1-3.1,4.926l-.028.189L140.293,121l.312.031a14.846,14.846,0,0,0,4.521-11.169" transform="translate(-115.366 -94.344)" fill="#4285f4"/>
  <path id="Path_1264" data-name="Path 1264" d="M27.489,168.551a14.472,14.472,0,0,0,10.055-3.678l-4.791-3.712a8.986,8.986,0,0,1-5.264,1.518,9.141,9.141,0,0,1-8.638-6.31l-.178.015-4.687,3.627-.061.17a15.173,15.173,0,0,0,13.564,8.368" transform="translate(-12.305 -138.183)" fill="#34a853"/>
  <path id="Path_1265" data-name="Path 1265" d="M6.546,81.2a9.348,9.348,0,0,1-.506-3,9.823,9.823,0,0,1,.489-3L6.52,75,1.775,71.312l-.155.074a15.152,15.152,0,0,0,0,13.632L6.546,81.2" transform="translate(0 -63.018)" fill="#fbbc05"/>
  <path id="Path_1266" data-name="Path 1266" d="M27.489,5.871A8.415,8.415,0,0,1,33.36,8.132l4.285-4.184A14.588,14.588,0,0,0,27.489,0,15.173,15.173,0,0,0,13.925,8.368l4.909,3.813a9.178,9.178,0,0,1,8.655-6.31" transform="translate(-12.305)" fill="#eb4335"/>
</svg>
